<svg width="195" height="38" viewBox="0 0 195 38" fill="none" xmlns="http://www.w3.org/2000/svg">
<path d="M129.765 36.3511C129.231 36.3511 128.783 36.1804 128.421 35.8391C128.079 35.4764 127.909 35.0391 127.909 34.5271C127.909 34.0151 128.079 33.5884 128.421 33.2471C128.783 32.8844 129.231 32.7031 129.765 32.7031C130.277 32.7031 130.703 32.8844 131.045 33.2471C131.407 33.5884 131.589 34.0151 131.589 34.5271C131.589 35.0391 131.407 35.4764 131.045 35.8391C130.703 36.1804 130.277 36.3511 129.765 36.3511Z" fill="white"/>
<path d="M138.382 36.1911L132.366 20.3191H135.182L139.95 33.5991L144.75 20.3191H147.502L141.486 36.1911H138.382Z" fill="white"/>
<path d="M156.913 36.5751C155.419 36.5751 154.075 36.2338 152.881 35.5511C151.686 34.8684 150.737 33.9084 150.033 32.6711C149.35 31.4124 149.009 29.9404 149.009 28.2551C149.009 26.5698 149.361 25.1084 150.065 23.8711C150.769 22.6124 151.718 21.6418 152.913 20.9591C154.129 20.2764 155.483 19.9351 156.977 19.9351C158.47 19.9351 159.814 20.2764 161.009 20.9591C162.203 21.6418 163.142 22.6124 163.825 23.8711C164.529 25.1084 164.881 26.5698 164.881 28.2551C164.881 29.9404 164.529 31.4124 163.825 32.6711C163.121 33.9084 162.161 34.8684 160.945 35.5511C159.75 36.2338 158.406 36.5751 156.913 36.5751ZM156.913 34.2711C157.83 34.2711 158.683 34.0471 159.473 33.5991C160.262 33.1511 160.902 32.4791 161.393 31.5831C161.883 30.6871 162.129 29.5778 162.129 28.2551C162.129 26.9324 161.883 25.8231 161.393 24.9271C160.923 24.0311 160.294 23.3591 159.505 22.9111C158.715 22.4631 157.873 22.2391 156.977 22.2391C156.059 22.2391 155.206 22.4631 154.417 22.9111C153.627 23.3591 152.987 24.0311 152.497 24.9271C152.006 25.8231 151.761 26.9324 151.761 28.2551C151.761 29.5778 152.006 30.6871 152.497 31.5831C152.987 32.4791 153.617 33.1511 154.385 33.5991C155.174 34.0471 156.017 34.2711 156.913 34.2711Z" fill="white"/>
<path d="M174.265 36.1911C172.814 36.1911 171.673 35.8391 170.841 35.1351C170.009 34.4311 169.593 33.1618 169.593 31.3271V22.5911H166.841V20.3191H169.593L169.945 16.5111H172.281V20.3191H176.953V22.5911H172.281V31.3271C172.281 32.3298 172.484 33.0124 172.889 33.3751C173.294 33.7164 174.009 33.8871 175.033 33.8871H176.697V36.1911H174.265Z" fill="white"/>
<path d="M187.067 36.5751C185.552 36.5751 184.208 36.2338 183.035 35.5511C181.861 34.8471 180.933 33.8764 180.251 32.6391C179.589 31.4018 179.259 29.9404 179.259 28.2551C179.259 26.5911 179.589 25.1404 180.251 23.9031C180.912 22.6444 181.829 21.6738 183.003 20.9911C184.197 20.2871 185.573 19.9351 187.131 19.9351C188.667 19.9351 189.989 20.2871 191.099 20.9911C192.229 21.6738 193.093 22.5804 193.691 23.7111C194.288 24.8418 194.587 26.0578 194.587 27.3591C194.587 27.5938 194.576 27.8284 194.555 28.0631C194.555 28.2978 194.555 28.5644 194.555 28.8631H181.915C181.979 30.0791 182.256 31.0924 182.747 31.9031C183.259 32.6924 183.888 33.2898 184.635 33.6951C185.403 34.1004 186.213 34.3031 187.067 34.3031C188.176 34.3031 189.104 34.0471 189.851 33.5351C190.597 33.0231 191.141 32.3298 191.483 31.4551H194.139C193.712 32.9271 192.891 34.1538 191.675 35.1351C190.48 36.0951 188.944 36.5751 187.067 36.5751ZM187.067 22.2071C185.787 22.2071 184.645 22.6018 183.643 23.3911C182.661 24.1591 182.096 25.2898 181.947 26.7831H191.931C191.867 25.3538 191.376 24.2338 190.459 23.4231C189.541 22.6124 188.411 22.2071 187.067 22.2071Z" fill="white"/>
<path d="M110.764 0L85.0082 36.8998H92.916L118.806 0H110.764Z" fill="white"/>
<path d="M93.7397 0L101.318 10.8731L97.3641 16.804L85.6672 0H93.7397Z" fill="url(#paint0_linear_447_2)"/>
<path d="M111.532 36.9028L103.13 24.8764L107.084 19.1104L119.44 36.9028H111.532Z" fill="url(#paint1_linear_447_2)"/>
<path fill-rule="evenodd" clip-rule="evenodd" d="M75.7825 0H82.7018V36.8998H75.7825V35.5216C73.7842 36.6122 71.4899 37.2323 69.0501 37.2323C61.3041 37.2323 55.0247 30.9813 55.0247 23.2702C55.0247 15.5591 61.3041 9.30807 69.0501 9.30807C71.4899 9.30807 73.7842 9.9282 75.7825 11.0187V0ZM68.9763 31.1044C73.3634 31.1044 76.9199 27.564 76.9199 23.1966C76.9199 18.8293 73.3634 15.2889 68.9763 15.2889C64.5891 15.2889 61.0326 18.8293 61.0326 23.1966C61.0326 27.564 64.5891 31.1044 68.9763 31.1044Z" fill="white"/>
<path d="M55.713 0L29.9835 36.8998H38.0498L63.7545 0H55.713Z" fill="white"/>
<path d="M38.056 0L46.1285 11.2026L41.6804 17.4629L29.654 0H38.056Z" fill="url(#paint2_linear_447_2)"/>
<path fill-rule="evenodd" clip-rule="evenodd" d="M20.7578 0H27.6771V36.8998H20.7578V35.5216C18.7594 36.6122 16.4652 37.2323 14.0255 37.2323C6.27941 37.2323 0 30.9813 0 23.2702C0 15.5591 6.27941 9.30807 14.0255 9.30807C16.4652 9.30807 18.7594 9.9282 20.7578 11.0187V0ZM13.9516 31.1044C18.3387 31.1044 21.8952 27.564 21.8952 23.1966C21.8952 18.8293 18.3387 15.2889 13.9516 15.2889C9.56445 15.2889 6.00797 18.8293 6.00797 23.1966C6.00797 27.564 9.56445 31.1044 13.9516 31.1044Z" fill="white"/>
<defs>
<linearGradient id="paint0_linear_447_2" x1="77.8346" y1="5.11031" x2="84.9033" y2="52.9954" gradientUnits="userSpaceOnUse">
<stop stop-color="white"/>
<stop offset="1" stop-color="white" stop-opacity="0.55"/>
</linearGradient>
<linearGradient id="paint1_linear_447_2" x1="121.862" y1="31.3716" x2="114.405" y2="-25.9488" gradientUnits="userSpaceOnUse">
<stop stop-color="#6966FF"/>
<stop offset="1" stop-color="#6966FF" stop-opacity="0.36"/>
</linearGradient>
<linearGradient id="paint2_linear_447_2" x1="77.8346" y1="5.11031" x2="84.9033" y2="52.9956" gradientUnits="userSpaceOnUse">
<stop stop-color="white"/>
<stop offset="1" stop-color="white" stop-opacity="0.55"/>
</linearGradient>
</defs>
</svg>
